<?xml version="1.0" standalone="no"?>
<!DOCTYPE svg PUBLIC "-//W3C//DTD SVG 20010904//EN"
 "http://www.w3.org/TR/2001/REC-SVG-20010904/DTD/svg10.dtd">
<svg version="1.0" xmlns="http://www.w3.org/2000/svg"
 width="48.000000pt" height="48.000000pt" viewBox="0 0 48.000000 48.000000"
 preserveAspectRatio="xMidYMid meet">

<g transform="translate(0.000000,48.000000) scale(0.100000,-0.100000)"
fill="#000000" stroke="none">
<path d="M115 461 c-98 -45 -140 -152 -96 -246 33 -72 97 -116 164 -114 26 1
22 3 -21 14 -96 23 -147 91 -140 187 7 91 59 147 147 156 69 6 95 -2 147 -50
50 -46 61 -38 12 10 -64 61 -140 77 -213 43z"/>
<path d="M143 439 c-101 -29 -141 -165 -73 -251 36 -46 130 -77 130 -43 0 17
-16 21 -22 5 -6 -17 -87 28 -107 61 -23 38 -26 113 -4 134 8 8 11 15 7 15 -4
0 3 11 16 25 12 13 26 22 31 20 4 -3 9 0 11 7 4 12 81 21 111 12 9 -3 14 -10
11 -16 -5 -7 -1 -9 8 -5 19 7 53 -27 43 -42 -3 -6 -2 -11 4 -11 40 0 4 55 -53
81 -45 20 -65 22 -113 8z"/>
<path d="M425 413 c-29 -7 -45 -23 -45 -45 0 -12 -12 -24 -34 -33 -24 -10 -35
-22 -39 -44 -4 -21 -14 -32 -30 -36 -36 -9 -61 -65 -54 -122 3 -27 9 -56 12
-66 6 -13 2 -17 -19 -17 -19 0 -26 -5 -26 -19 0 -27 18 -31 130 -31 112 0 130
4 130 31 0 15 -7 19 -31 19 -27 0 -30 2 -19 15 7 8 18 15 24 15 20 0 56 44 56
67 0 23 -43 63 -66 63 -8 0 -14 6 -14 13 0 21 22 37 52 37 15 0 28 5 28 10 0
15 -43 12 -68 -6 -12 -8 -22 -24 -22 -35 0 -17 -7 -19 -65 -19 -69 0 -82 11
-38 32 18 9 30 23 33 43 4 20 12 31 29 35 13 3 27 12 31 20 23 50 28 55 64 58
20 2 36 7 36 13 0 9 -21 10 -55 2z m-25 -275 c0 -68 -18 -88 -78 -88 -64 0
-82 19 -82 87 l0 53 80 0 80 0 0 -52z m48 40 c23 -23 8 -78 -22 -78 -5 0 -2 8
8 19 16 18 13 51 -5 51 -5 0 -9 5 -9 10 0 14 13 13 28 -2z m-21 -40 c-3 -8 -6
-5 -6 6 -1 11 2 17 5 13 3 -3 4 -12 1 -19z m-50 -115 c-31 -2 -83 -2 -115 0
-31 2 -5 3 58 3 63 0 89 -1 57 -3z"/>
<path d="M410 325 c0 -19 -8 -28 -35 -39 -29 -12 -35 -20 -34 -43 2 -24 2 -25
6 -5 3 14 17 28 39 37 28 12 34 19 34 44 0 17 -2 31 -5 31 -3 0 -5 -11 -5 -25z"/>
<path d="M206 310 c-19 -24 -26 -43 -26 -75 0 -24 5 -47 10 -50 6 -4 10 14 10
46 0 40 5 58 22 76 12 13 19 25 16 28 -3 3 -17 -8 -32 -25z"/>
<path d="M90 290 c0 -5 18 -10 41 -10 24 0 38 4 34 10 -3 6 -22 10 -41 10 -19
0 -34 -4 -34 -10z"/>
</g>
</svg>
